<svg id="Layer_1" enable-background="new 0 0 512 512" height="512" viewBox="0 0 512 512" width="512" xmlns="http://www.w3.org/2000/svg"><g id="XMLID_771_"><g id="XMLID_363_"><path id="XMLID_912_" d="m279.488 296.895.001-.005-132-86.679c-3.332-2.189-7.646-2.189-10.979 0l-132 86.679c-2.868 1.884-4.503 5.055-4.504 8.36-.002 0-.005 0-.007 0v40c0 4.837 3.436 8.872 8 9.799v97.152c-4.564.927-8 4.962-8 9.799v40c0 5.522 4.478 10 10 10h264c5.522 0 10-4.478 10-10v-40c0-4.837-3.436-8.872-8-9.799v-97.152c4.564-.927 8-4.962 8-9.799v-40c.001-3.495-1.795-6.567-4.511-8.355zm-43.488 155.105v-96.75h20v96.75zm-64 0v-96.75h44v96.75zm-40 0v-96.75h20v96.75zm-64 0v-96.75h44v96.75zm-40 0v-96.75h20v96.75zm236-116.75h-244v-20h244zm-122-104.717 98.553 64.717h-197.106zm122 261.467h-244v-20h244z"/><path id="XMLID_1357_" d="m502 0h-76c-5.522 0-10 4.478-10 10v9h-125.058c-12.136 0-23.976 1.93-35.17 5.641-24.632 6.406-47.904 18.486-67.327 34.966-19.806 16.804-35.743 38.31-46.091 62.191-7.453 17.203.479 37.262 17.679 44.714 4.301 1.864 8.843 2.81 13.497 2.81h.011c6.886 0 13.428-2.081 18.912-5.75-2.085 5.872-3.231 12.185-3.231 18.763 0 31.001 25.222 56.223 56.223 56.223 22.942 0 43.514-14.238 52.04-34.946.297.008.593.026.89.026 3.398 0 6.835-.507 10.198-1.554l12.792-3.983c24.8-7.723 63.843-19.886 94.636-35.052v5.951c0 5.522 4.478 10 10 10h76c5.522 0 10-4.478 10-10v-34.5c0-5.522-4.478-10-10-10s-10 4.478-10 10v24.5h-56v-139h56v24.5c0 5.522 4.478 10 10 10s10-4.478 10-10v-34.5c-.001-5.522-4.479-10-10.001-10zm-328.463 149.322c-.002 0-.003 0-.005 0-1.904 0-3.771-.391-5.547-1.16-7.083-3.068-10.349-11.328-7.279-18.412 7.437-17.164 17.762-32.461 30.363-45.392-6.469 17.081-7.893 35.963-3.615 54.171-.359.783-.716 1.568-1.056 2.354-2.222 5.126-7.269 8.438-12.861 8.439zm71.907 69.236c-19.974 0-36.223-16.249-36.223-36.223s16.249-36.223 36.223-36.223c8.168 0 15.983 2.747 22.3 7.688-5.647 11.248-4.893 25.192 2.965 35.861 2.199 2.986 4.826 5.525 7.738 7.597-5.776 12.679-18.669 21.3-33.003 21.3zm8.367-94.97c-2.239-8.506.237-17.658 6.465-23.885 2.416-2.417 5.095-4.539 7.962-6.309 8.792-5.427 20.598-3.467 27.458 4.563 7.742 9.063 6.669 22.736-2.392 30.48l-12.213 10.438c-7.655-6.285-16.816-10.443-26.602-12.032-.172-1.089-.394-2.176-.678-3.255zm61.606 55.417-12.792 3.983c-5.831 1.817-12.189-.268-15.813-5.188-4.437-6.023-3.457-14.549 2.229-19.409l17.256-14.749c17.442-14.907 19.508-41.229 4.604-58.675-13.207-15.457-36.063-19.151-53.17-8.591-4.185 2.582-8.087 5.673-11.6 9.185-10.891 10.892-15.4 26.744-11.988 41.693-9.468 1.939-18.066 6.277-25.156 12.332-.705-1.149-1.252-2.409-1.609-3.764-6.572-24.951.69-51.797 18.954-70.06 17.259-17.258 40.204-26.762 64.61-26.762h125.058v101.519c-30.017 16.506-73.83 30.155-100.583 38.486z"/><path id="XMLID_1362_" d="m502 79.5c-2.63 0-5.21 1.069-7.07 2.93s-2.93 4.44-2.93 7.07 1.069 5.21 2.93 7.069c1.86 1.86 4.44 2.931 7.07 2.931s5.21-1.07 7.069-2.931c1.861-1.859 2.931-4.439 2.931-7.069s-1.07-5.21-2.931-7.07c-1.859-1.861-4.439-2.93-7.069-2.93z"/></g></g></svg>