<?xml version="1.0" encoding="iso-8859-1"?>
<!-- Generator: Adobe Illustrator 19.0.0, SVG Export Plug-In . SVG Version: 6.00 Build 0)  -->
<svg version="1.1" id="Capa_1" xmlns="http://www.w3.org/2000/svg" xmlns:xlink="http://www.w3.org/1999/xlink" x="0px" y="0px"
	 viewBox="0 0 512 512" style="enable-background:new 0 0 512 512;" xml:space="preserve">
<g>
	<g>
		<path d="M256,0C115.03,0,0,115.05,0,256c0,140.97,115.05,256,256,256c140.97,0,256-115.05,256-256C512,115.03,396.95,0,256,0z
			 M256,482C131.383,482,30,380.617,30,256S131.383,30,256,30s226,101.383,226,226S380.617,482,256,482z"/>
	</g>
</g>
<g>
	<g>
		<path d="M256,61C148.477,61,61,148.477,61,256s87.477,195,195,195s195-87.477,195-195S363.523,61,256,61z M256,421
			c-90.981,0-165-74.019-165-165S165.019,91,256,91s165,74.019,165,165S346.981,421,256,421z"/>
	</g>
</g>
<g>
	<g>
		<path d="M331.896,249.588C340.688,239.148,346,225.685,346,211c0-27.906-19.151-51.424-45-58.101V136c0-8.284-6.716-15-15-15
			s-15,6.716-15,15v15h-30v-15c0-8.284-6.716-15-15-15s-15,6.716-15,15v15h-15c-8.268,0-15,6.72-15,15c0,8.275,6.749,15,15,15h15v75
			v75h-15c-8.236,0-15,6.709-15,15c0,8.275,6.749,15,15,15h15v15c0,8.284,6.716,15,15,15s15-6.716,15-15v-15h30v15
			c0,8.284,6.716,15,15,15s15-6.716,15-15v-15c33.084,0,60-26.916,60-60C361,279.209,349.321,260.099,331.896,249.588z M241,181h45
			c16.542,0,30,13.458,30,30s-13.458,30-30,30h-45V181z M301,331h-60v-60c6.893,0,53.533,0,60,0c16.542,0,30,13.458,30,30
			S317.542,331,301,331z"/>
	</g>
</g>
<g>
</g>
<g>
</g>
<g>
</g>
<g>
</g>
<g>
</g>
<g>
</g>
<g>
</g>
<g>
</g>
<g>
</g>
<g>
</g>
<g>
</g>
<g>
</g>
<g>
</g>
<g>
</g>
<g>
</g>
</svg>
