<?xml version="1.0" encoding="iso-8859-1"?>
<!-- Generator: Adobe Illustrator 19.0.0, SVG Export Plug-In . SVG Version: 6.00 Build 0)  -->
<svg version="1.1" id="Layer_1" xmlns="http://www.w3.org/2000/svg" xmlns:xlink="http://www.w3.org/1999/xlink" x="0px" y="0px"
	 viewBox="0 0 370 370" style="enable-background:new 0 0 370 370;" xml:space="preserve">
<g id="XMLID_941_">
	<g>
		<g>
			<path d="M370,223.378v-76.756h-38.002c-3.508-13.495-8.844-26.362-15.93-38.415l26.885-26.884l-54.276-54.276l-26.884,26.885
				c-12.054-7.087-24.921-12.423-38.415-15.931V0h-76.756v38.001c-13.494,3.508-26.361,8.844-38.415,15.931L81.323,27.047
				L27.047,81.323l26.885,26.884c-7.086,12.053-12.422,24.92-15.93,38.415H0v76.756h38.002c3.508,13.495,8.844,26.362,15.93,38.415
				l-26.885,26.884l54.276,54.276l26.884-26.885c12.054,7.087,24.921,12.423,38.415,15.931V370h76.756v-38.001
				c13.494-3.508,26.361-8.844,38.415-15.931l26.884,26.885l54.276-54.276l-26.885-26.884c7.086-12.053,12.422-24.92,15.93-38.415
				H370z M315.877,203.378l-1.626,8.011c-3.366,16.579-9.83,32.168-19.212,46.332l-4.514,6.814l24.143,24.142l-25.991,25.991
				l-24.142-24.143l-6.814,4.514c-14.166,9.383-29.754,15.847-46.332,19.212l-8.011,1.626V350h-36.756v-34.123l-8.011-1.626
				c-16.578-3.365-32.166-9.829-46.332-19.212l-6.814-4.514l-24.142,24.143l-25.991-25.991l24.143-24.142l-4.514-6.814
				c-9.382-14.164-15.846-29.753-19.212-46.332l-1.626-8.011H20v-36.756h34.123l1.626-8.011c3.366-16.579,9.83-32.168,19.212-46.332
				l4.514-6.814L55.332,81.323l25.991-25.991l24.142,24.143l6.814-4.514c14.166-9.383,29.754-15.847,46.332-19.212l8.011-1.626V20
				h36.756v34.123l8.011,1.626c16.578,3.365,32.166,9.829,46.332,19.212l6.814,4.514l24.142-24.143l25.991,25.991l-24.143,24.142
				l4.514,6.814c9.382,14.164,15.846,29.753,19.212,46.332l1.626,8.011H350v36.756H315.877z"/>
			<path d="M185,115c-38.598,0-70,31.402-70,70c0,38.598,31.402,70,70,70c38.598,0,70-31.402,70-70C255,146.402,223.598,115,185,115
				z M185,235c-27.57,0-50-22.43-50-50s22.43-50,50-50s50,22.43,50,50S212.57,235,185,235z"/>
		</g>
	</g>
</g>
<g>
</g>
<g>
</g>
<g>
</g>
<g>
</g>
<g>
</g>
<g>
</g>
<g>
</g>
<g>
</g>
<g>
</g>
<g>
</g>
<g>
</g>
<g>
</g>
<g>
</g>
<g>
</g>
<g>
</g>
</svg>
